HIERARCHY
ROOT Hips
{
	OFFSET 0.00000 0.00000 0.00000
	CHANNELS 6 Xposition Yposition Zposition Zrotation Yrotation Xrotation 
	JOINT LHipJoint
	{
		OFFSET 0 0 0
		CHANNELS 3 Zrotation Yrotation Xrotation
		JOINT LeftHip
		{
			OFFSET 1.75344 -1.53157 0.77399
			CHANNELS 3 Zrotation Yrotation Xrotation
			JOINT LeftKnee
			{
				OFFSET 2.25415 -6.19323 0.00000
				CHANNELS 3 Zrotation Yrotation Xrotation
				JOINT LeftAnkle
				{
					OFFSET 2.30342 -6.32861 0.00000
					CHANNELS 3 Zrotation Yrotation Xrotation
					JOINT LeftToe
					{
						OFFSET 0.10958 -0.30108 1.49206
						CHANNELS 3 Zrotation Yrotation Xrotation
						End Site
						{
							OFFSET 0.00000 -0.00000 0.77783
						}
					}
				}
			}
		}
	}
	JOINT RHipJoint
	{
		OFFSET 0 0 0
		CHANNELS 3 Zrotation Yrotation Xrotation
		JOINT RightHip
		{
			OFFSET -1.81912 -1.53156 0.77399
			CHANNELS 3 Zrotation Yrotation Xrotation
			JOINT RightKnee
			{
				OFFSET -2.22882 -6.12365 0.00000
				CHANNELS 3 Zrotation Yrotation Xrotation
				JOINT RightAnkle
				{
					OFFSET -2.21943 -6.09785 0.00000
					CHANNELS 3 Zrotation Yrotation Xrotation
					JOINT RightToe
					{
						OFFSET -0.18931 -0.52012 1.59379
						CHANNELS 3 Zrotation Yrotation Xrotation
						End Site
						{
							OFFSET -0.00000 -0.00000 0.84686
						}
					}
				}
			}
		}
	}
	JOINT lowerback
	{
		OFFSET 0 0 0
		CHANNELS 3 Zrotation Yrotation Xrotation
		JOINT Chest
		{
			OFFSET -0.00200 1.66634 -0.14248
			CHANNELS 3 Zrotation Yrotation Xrotation
			JOINT Chest2
			{
				OFFSET -0.00875 1.64542 0.09514
				CHANNELS 3 Zrotation Yrotation Xrotation
				JOINT lowerneck
				{
					OFFSET 0 0 0
					CHANNELS 3 Zrotation Yrotation Xrotation
					JOINT Neck
					{
						OFFSET 0.02257 1.59605 0.00839
						CHANNELS 3 Zrotation Yrotation Xrotation
						JOINT Head
						{
							OFFSET -0.10214 1.57530 -0.23335
							CHANNELS 3 Zrotation Yrotation Xrotation
							End Site
							{
								OFFSET -0.03588 1.60717 -0.08062
							}
						}
					}
				}
				JOINT LeftCollar
				{
					OFFSET 0 0 0
					CHANNELS 3 Zrotation Yrotation Xrotation
					JOINT LeftShoulder
					{
						OFFSET 2.54983 1.10186 0.40078
CHANNELS 3 Zrotation Xrotation Yrotation
						JOINT LeftElbow
						{
OFFSET 0 -4.288400 0.000000
CHANNELS 3 Zrotation Xrotation Yrotation
							JOINT LeftWrist
							{
OFFSET 0 -3.065520 -0.000000
CHANNELS 3 Zrotation Xrotation Yrotation
								JOINT lhand
								{
									OFFSET 0 0 0
CHANNELS 3 Zrotation Xrotation Yrotation
									JOINT LFingers
									{
OFFSET 0 -0.753040 0.000000
CHANNELS 3 Zrotation Xrotation Yrotation
										End Site
										{
OFFSET 0 -0.607120 0.000000
										}
									}
								}
								JOINT LThumb
								{
OFFSET 0 0.000000 0.000000
CHANNELS 3 Zrotation Xrotation Yrotation
									End Site
									{
OFFSET 0 -0.616390 0.616390
									}
								}
							}
						}
					}
				}
				JOINT RightCollar
				{
					OFFSET 0 0 0
					CHANNELS 3 Zrotation Yrotation Xrotation
					JOINT RightShoulder
					{
						OFFSET -2.60909 1.35448 0.21802
CHANNELS 3 Zrotation Xrotation Yrotation
						JOINT RightElbow
						{
OFFSET 0 -4.521720 -0.000000
CHANNELS 3 Zrotation Xrotation Yrotation
							JOINT RightWrist
							{
OFFSET 0 -2.891400 0.000000
CHANNELS 3 Zrotation Xrotation Yrotation
								JOINT rhand
								{
									OFFSET 0 0 0
CHANNELS 3 Zrotation Xrotation Yrotation
									JOINT RFingers
									{
OFFSET 0 -0.680540 0.000000
CHANNELS 3 Zrotation Xrotation Yrotation
										End Site
										{
OFFSET 0 -0.548670 0.000000
										}
									}
								}
								JOINT RThumb
								{
OFFSET 0 0.000000 0.000000
CHANNELS 3 Zrotation Xrotation Yrotation
									End Site
									{
OFFSET 0 -0.557050 0.557050
									}
								}
							}
						}
					}
				}
			}
		}
	}
}
MOTION
Frames: 15
Frame Time: .0083333
9.9430 15.5389 19.6942 -178.5240 0.0779 179.9420 0.0000 0.0000 0.0000 -21.3429 -22.5736 0.4449 1.6169 8.0178 22.7681 -0.2643 18.0570 -23.1602 7.6097 -15.8245 -51.1442 0.0000 0.0000 0.0000 25.2374 14.2487 5.2894 -0.6153 -5.0202 13.9661 1.0457 -22.7835 -23.8861 -0.1038 2.0778 -5.7207 2.1137 1.2478 9.6199 -0.0205 2.0118 -4.1309 -1.5739 0.8560 -9.7564 -6.8193 -2.1210 -7.7949 6.7033 -3.8200 17.5755 2.9516 -2.0220 6.8815 -0.0000 0.0000 0.0000 4.5537 11.8025 -27.6442 19.4543 -29.9793 5.2559 3.7745 12.3679 34.0867 0.0 0.0 0.0 -7.1250 0.0 0.0 -15.7863 -3.0426 -17.2562 -0.0000 0.0000 0.0000 -5.5815 10.9336 38.6635 -19.9188 -30.5444 -5.49 -13.4741 31.7194 52.6933 0.0 0.0 0.0 7.1250 0.0 -0.0 64.9811 76.2035 -51.5452
9.9421 15.5377 19.6938 -178.5220 0.1165 179.9410 0.0000 0.0000 0.0000 -21.3115 -22.4348 0.3661 1.6214 8.0285 22.8008 -0.2568 17.9512 -23.0680 7.5893 -15.8087 -51.0695 0.0000 0.0000 0.0000 25.2309 14.2310 5.2326 -0.6233 -5.0521 14.0571 1.0268 -22.7114 -23.9295 -0.0948 1.9855 -5.4655 2.1131 1.2666 9.6302 -0.0051 2.0349 -4.0706 -1.5600 0.8682 -9.6956 -6.8195 -2.1508 -7.6976 6.6585 -3.8262 17.3305 2.9364 -2.0224 6.7858 -0.0000 -0.0000 0.0000 4.7217 11.7877 -27.3257 19.3980 -29.9102 5.2278 4.0581 11.8673 34.1302 0.0 0.0 0.0 -7.1250 0.0 0.0 -15.6354 -3.1137 -17.0968 -0.0000 -0.0000 0.0000 -5.8672 10.9156 38.8471 -20.0617 -30.7166 -5.5628 -14.7413 32.1433 51.6729 0.0 0.0 0.0 7.1250 0.0 -0.0 60.3631 76.344 -47.5489
9.9387 15.5339 19.6902 -178.5790 0.3092 179.8470 0.0000 0.0000 0.0000 -21.4351 -22.3180 0.5065 1.6157 8.0149 22.7594 -0.2780 18.0842 -23.0678 7.5852 -15.8055 -51.0544 0.0000 0.0000 0.0000 25.1567 14.2518 5.2344 -0.6388 -5.1133 14.2319 0.9775 -22.5186 -24.0356 -0.0857 1.8878 -5.1958 2.1013 1.3612 9.6876 -0.0379 2.1523 -3.9769 -1.6087 0.9242 -9.6207 -6.7213 -2.1853 -7.5008 6.5678 -3.8431 16.9872 2.8896 -2.0259 6.6397 -0.0000 -0.0000 0.0000 5.0107 11.9254 -27.2345 19.4599 -29.9861 5.2587 5.0301 10.8721 34.5679 0.0 0.0 0.0 -7.1250 0.0 0.0 -15.1324 -3.64 -16.6385 -0.0000 -0.0000 0.0000 -6.1054 10.8488 38.9032 -20.2774 -30.9751 -5.6734 -14.4411 31.1988 51.1586 0.0 0.0 0.0 7.1250 0.0 -0.0 58.5785 76.0222 -45.6468
9.9381 15.5323 19.6931 -178.7000 0.3077 179.8510 0.0000 0.0000 0.0000 -21.5593 -22.3269 0.4870 1.6155 8.0146 22.7585 -0.2525 17.9783 -23.1532 7.5328 -15.7647 -50.8619 0.0000 0.0000 0.0000 24.9934 14.2171 5.1233 -0.6505 -5.1592 14.3633 0.9434 -22.4078 -24.1544 -0.0783 1.8045 -4.9657 1.9987 1.4074 9.7525 -0.0815 2.1925 -3.9002 -1.6050 0.9480 -9.5747 -6.6895 -2.2309 -7.4098 6.5569 -3.8694 16.6532 2.8785 -2.0282 6.5188 -0.0000 -0.0000 0.0000 5.29 11.9966 -27.0681 19.5185 -30.0578 5.288 5.4657 10.3345 34.8964 0.0 0.0 0.0 -7.1250 0.0 0.0 -14.9157 -4.0056 -16.4731 -0.0000 -0.0000 0.0000 -6.4262 10.7078 39.0635 -20.7220 -31.5024 -5.904 -12.7132 28.2741 52.0987 0.0 0.0 0.0 7.1250 0.0 -0.0 63.0661 75.7111 -49.296
9.9407 15.5339 19.7014 -178.7400 0.2097 179.9540 0.0000 0.0000 0.0000 -21.4921 -22.2792 0.2497 1.6172 8.0185 22.7702 -0.2210 17.6991 -23.0292 7.5081 -15.7452 -50.7707 0.0000 0.0000 0.0000 24.9144 14.1583 4.8832 -0.6616 -5.2022 14.4862 0.9390 -22.3788 -24.1402 -0.0754 1.7717 -4.8753 1.9080 1.4190 9.8216 -0.0752 2.1948 -3.8559 -1.5489 0.9542 -9.5700 -6.7301 -2.3344 -7.4729 6.5228 -3.9631 16.4594 2.8656 -2.0677 6.4758 -0.0000 -0.0000 0.0000 5.4742 11.9473 -26.7474 19.5122 -30.0502 5.2849 5.53 10.1685 35.09 0.0 0.0 0.0 -7.1250 0.0 0.0 -14.8919 -4.1996 -16.4923 -0.0000 -0.0000 0.0000 -6.7742 10.671 39.3031 -20.8905 -31.7003 -5.9923 -12.5831 28.2337 52.4771 0.0 0.0 0.0 7.1250 0.0 -0.0 64.5555 75.7898 -50.7184
9.9432 15.5355 19.7112 -178.6990 0.1200 180.0530 0.0000 0.0000 0.0000 -21.3260 -22.2230 -0.0294 1.6236 8.0337 22.8164 -0.2254 17.5564 -22.7640 7.5821 -15.8031 -51.0431 0.0000 0.0000 0.0000 24.9255 14.1082 4.6479 -0.6699 -5.2339 14.5769 0.9615 -22.4363 -24.0307 -0.0915 1.9504 -5.3686 1.9250 1.4205 9.9347 -0.0540 2.2017 -3.8319 -1.5404 0.9560 -9.6103 -6.7476 -2.4073 -7.4200 6.4606 -4.0165 16.1940 2.8441 -2.0906 6.3859 0.0000 -0.0000 0.0000 5.6123 11.9774 -26.3006 19.5359 -30.0791 5.2968 5.4928 10.0481 35.1616 0.0 0.0 0.0 -7.1250 0.0 0.0 -14.9157 -4.2642 -16.5363 0.0000 -0.0000 0.0000 -7.0596 10.7245 39.4434 -21.0022 -31.8309 -6.0511 -12.938 28.9429 52.3466 0.0 0.0 0.0 7.1250 0.0 -0.0 63.8887 75.8833 -50.2171
9.9457 15.5366 19.7212 -178.6540 0.0328 180.1690 0.0000 0.0000 0.0000 -21.1527 -22.1916 -0.3454 1.6352 8.0608 22.8988 -0.2068 17.3722 -22.6655 7.6141 -15.8280 -51.1605 0.0000 0.0000 0.0000 24.9466 14.1437 4.4489 -0.6742 -5.2503 14.6239 0.9955 -22.5769 -23.9721 -0.1246 2.2757 -6.2681 1.9628 1.4277 10.0249 -0.0444 2.2181 -3.8129 -1.5569 0.9609 -9.6411 -6.8660 -2.4313 -7.3130 6.6214 -4.0272 15.8621 2.9152 -2.0838 6.2684 -0.0000 -0.0000 0.0000 5.8692 12.0587 -26.0562 19.6520 -30.2207 5.3551 4.2265 10.1591 34.8722 0.0 0.0 0.0 -7.1250 0.0 0.0 -15.5771 -3.8442 -17.2174 -0.0000 -0.0000 0.0000 -7.3489 10.6611 39.5408 -21.2889 -32.1641 -6.203 -12.3171 27.5144 52.5579 0.0 0.0 0.0 7.1250 0.0 -0.0 64.9880 75.7139 -51.0277
9.9467 15.5376 19.7290 -178.6610 -0.0334 180.3110 0.0000 0.0000 0.0000 -21.0604 -22.2002 -0.6469 1.6509 8.0976 23.0110 -0.1852 17.2139 -22.6398 7.6114 -15.8258 -51.1505 0.0000 0.0000 0.0000 24.8875 14.1540 4.2469 -0.6745 -5.2517 14.6277 0.9919 -22.5908 -24.0360 -0.1432 2.4389 -6.7202 1.9724 1.4950 10.0653 -0.0670 2.2489 -3.7812 -1.5884 0.9495 -9.6266 -7.0349 -2.5001 -7.3916 6.8708 -4.1113 15.7000 3.0158 -2.1081 6.2451 0.0000 -0.0000 0.0000 6.2354 12.0987 -26.0342 19.7226 -30.3067 5.3907 3.2832 10.0979 34.8535 0.0 0.0 0.0 -7.1250 0.0 0.0 -16.0790 -3.7277 -17.7866 0.0000 -0.0000 0.0000 -7.6533 10.4311 39.6788 -21.3493 -32.2339 -6.2352 -12.216 27.1441 52.5031 0.0 0.0 0.0 7.1250 0.0 -0.0 64.8295 75.6573 -50.8237
9.9460 15.5381 19.7344 -178.6750 -0.1238 180.4000 0.0000 0.0000 0.0000 -21.0257 -22.2567 -0.8406 1.6686 8.1387 23.1363 -0.1752 17.1376 -22.6236 7.6581 -15.8619 -51.3215 0.0000 0.0000 0.0000 24.8176 14.0698 4.0990 -0.6734 -5.2473 14.6154 0.9456 -22.4829 -24.2806 -0.1318 2.3400 -6.4464 1.9975 1.4933 10.1351 -0.0939 2.2507 -3.7346 -1.6330 0.9492 -9.6144 -7.1112 -2.5648 -7.4283 6.9992 -4.1782 15.4842 3.0636 -2.1273 6.1927 -0.0000 -0.0000 0.0000 6.5193 12.1587 -25.7217 19.6851 -30.261 5.3717 3.3294 10.1103 34.8658 0.0 0.0 0.0 -7.1250 0.0 0.0 -16.0550 -3.7441 -17.7622 -0.0000 -0.0000 0.0000 -7.9165 10.2471 39.7869 -21.4306 -32.3275 -6.2786 -11.0147 26.1987 53.1967 0.0 0.0 0.0 7.1250 0.0 -0.0 67.9680 75.4104 -53.4127
9.9469 15.5366 19.7394 -178.5890 -0.2015 180.4430 0.0000 0.0000 0.0000 -20.8743 -22.2328 -1.0183 1.6834 8.1730 23.2408 -0.1608 17.0700 -22.6651 7.7298 -15.9169 -51.5837 0.0000 0.0000 0.0000 24.8804 13.9715 3.9911 -0.6742 -5.2504 14.6241 0.9300 -22.4664 -24.4009 -0.1240 2.2697 -6.2515 2.0596 1.4599 10.2153 -0.0592 2.2206 -3.6783 -1.6272 0.9334 -9.6002 -7.1310 -2.5602 -7.1989 7.0637 -4.1421 15.0134 3.0916 -2.1008 6.0040 0.0000 0.0000 0.0000 6.7366 12.3338 -25.1747 19.7762 -30.3717 5.4177 2.6869 10.4352 34.596 0.0 0.0 0.0 -7.1250 0.0 0.0 -16.3872 -3.4217 -18.0734 0.0000 0.0000 0.0000 -8.1826 10.1683 39.8689 -21.5782 -32.4971 -6.3578 -8.086 23.875 54.4165 0.0 0.0 0.0 7.1250 0.0 -0.0 73.5469 74.6174 -57.7189
9.9491 15.5358 19.7467 -178.5120 -0.2631 180.5480 0.0000 0.0000 0.0000 -20.6832 -22.1749 -1.2977 1.6943 8.1980 23.3170 -0.1471 16.9623 -22.6394 7.7512 -15.9332 -51.6616 0.0000 0.0000 0.0000 24.9205 13.9225 3.7638 -0.6811 -5.2766 14.6992 0.9579 -22.5621 -24.3158 -0.1296 2.3206 -6.3926 2.1104 1.4594 10.2804 -0.0562 2.2299 -3.6304 -1.6556 0.9361 -9.5839 -7.0555 -2.6006 -7.0971 7.0494 -4.1693 14.6598 3.0725 -2.1040 5.8762 -0.0000 -0.0000 0.0000 7.0166 12.5164 -24.7235 19.9575 -30.5911 5.5097 1.7242 10.9234 34.1317 0.0 0.0 0.0 -7.1250 0.0 0.0 -16.8869 -2.8873 -18.5231 -0.0000 -0.0000 0.0000 -8.4411 10.0856 39.8982 -21.6992 -32.6355 -6.4229 -9.2313 24.9967 54.0975 0.0 0.0 0.0 7.1250 0.0 -0.0 71.9920 74.971 -56.6556
9.9520 15.5381 19.7565 -178.5540 -0.4162 180.7200 0.0000 0.0000 0.0000 -20.5906 -22.1963 -1.6592 1.7068 8.2265 23.4042 -0.1356 16.7921 -22.4999 7.7642 -15.9431 -51.7090 0.0000 0.0000 0.0000 24.8274 13.9310 3.4568 -0.6908 -5.3136 14.8051 0.9800 -22.6816 -24.3359 -0.1286 2.3115 -6.3674 2.0841 1.4584 10.4181 -0.1110 2.2244 -3.6439 -1.7035 0.9316 -9.6787 -6.9633 -2.6581 -7.1751 7.0595 -4.2266 14.4538 3.0548 -2.1172 5.8282 -0.0000 -0.0000 0.0000 7.3222 12.5883 -24.2772 19.9727 -30.6095 5.5175 0.8423 11.7003 33.0963 0.0 0.0 0.0 -7.1250 0.0 0.0 -17.3392 -1.8224 -18.7512 -0.0000 -0.0000 0.0000 -8.6943 10.0178 39.8865 -21.7950 -32.7446 -6.4746 -4.7256 21.6282 55.1416 0.0 0.0 0.0 7.1250 0.0 -0.0 77.1890 73.5382 -59.9513
9.9531 15.5369 19.7648 -178.6650 -0.5443 180.8540 0.0000 0.0000 0.0000 -20.6009 -22.1876 -1.9931 1.7257 8.2698 23.5364 -0.1303 16.6447 -22.3333 7.8149 -15.9814 -51.8931 0.0000 0.0000 0.0000 24.6340 13.8146 3.1787 -0.6949 -5.3290 14.8493 0.9538 -22.6105 -24.4518 -0.1238 2.2679 -6.2467 2.0030 1.4517 10.5787 -0.1689 2.2031 -3.6746 -1.7224 0.9217 -9.8087 -6.9915 -2.6697 -7.1271 7.1940 -4.2376 14.2290 3.1016 -2.1114 5.7539 -0.0000 -0.0000 0.0000 7.6156 12.6164 -23.7278 19.8645 -30.4787 5.4624 -0.1109 12.6087 32.0666 0.0 0.0 0.0 -7.1250 0.0 0.0 -17.8456 -0.7661 -19.0252 -0.0000 -0.0000 0.0000 -8.9263 9.9544 39.7211 -21.8318 -32.7864 -6.4945 -10.0919 26.172 53.5177 0.0 0.0 0.0 7.1250 0.0 -0.0 69.5366 75.1498 -54.5698
9.9549 15.5335 19.7698 -178.6360 -0.6007 180.9240 0.0000 0.0000 0.0000 -20.4774 -22.1044 -2.2780 1.7507 8.3262 23.7092 -0.0963 16.4119 -22.3322 7.8254 -15.9893 -51.9314 0.0000 0.0000 0.0000 24.6154 13.6827 3.0123 -0.6940 -5.3254 14.8391 0.9274 -22.5359 -24.5619 -0.1366 2.3824 -6.5637 2.0573 1.4616 10.6852 -0.1966 2.2254 -3.6300 -1.7896 0.9289 -9.8184 -7.0138 -2.7110 -7.1418 7.3002 -4.2859 14.0608 3.1349 -2.1243 5.7103 0.0000 -0.0000 0.0000 8.0146 12.6438 -23.4768 19.8605 -30.4739 5.4604 -0.824 12.9987 31.6663 0.0 0.0 0.0 -7.1250 0.0 0.0 -18.2331 -0.3339 -19.3434 0.0000 -0.0000 0.0000 -9.145 9.7478 39.6331 -21.7653 -32.7108 -6.4586 -11.7602 27.5163 52.6253 0.0 0.0 0.0 7.1250 0.0 -0.0 65.5034 75.5221 -51.2875
9.9607 15.5324 19.7747 -178.3870 -0.7244 180.9780 0.0000 0.0000 0.0000 -20.0827 -22.0343 -2.5821 1.7802 8.3923 23.9121 -0.0358 16.0741 -22.4503 7.8205 -15.9856 -51.9134 0.0000 0.0000 0.0000 24.9052 13.6855 2.9317 -0.6939 -5.3251 14.8382 0.9687 -22.7536 -24.5894 -0.1804 2.7357 -7.5436 2.2627 1.4513 10.8584 -0.1439 2.2520 -3.5952 -1.8590 0.9303 -9.8759 -6.9584 -2.7772 -7.2386 7.3035 -4.3601 13.9508 3.1198 -2.1508 5.6975 0.0000 0.0000 0.0000 8.3924 12.723 -23.3344 19.9227 -30.5491 5.492 -1.7379 13.1306 31.3827 0.0 0.0 0.0 -7.1250 0.0 0.0 -18.7317 -0.004 -19.8232 0.0000 0.0000 0.0000 -9.4379 9.4567 39.8286 -21.6387 -32.5663 -6.3903 -10.6809 26.5842 53.0169 0.0 0.0 0.0 7.1250 0.0 -0.0 67.4455 75.2318 -52.7381
